<svg width="367" height="367" viewBox="0 0 367 367" fill="none" xmlns="http://www.w3.org/2000/svg">
<circle cx="183.5" cy="183.5" r="183.5" fill="#E07C3E"/>
<circle cx="184.5" cy="182.5" r="163" stroke="white" stroke-width="3" stroke-dasharray="12 12"/>
<path d="M113.772 132.304L107.256 151.852L100.704 132.304H95.7358L104.556 157H109.92L118.74 132.304H113.772ZM126.784 133.672C126.784 131.908 125.38 130.576 123.58 130.576C121.816 130.576 120.412 131.908 120.412 133.672C120.412 135.472 121.816 136.732 123.58 136.732C125.38 136.732 126.784 135.472 126.784 133.672ZM121.096 157H126.064V139.36H121.096V157ZM137 152.932C136.604 153.076 136.424 153.112 136.136 153.112C135.632 153.112 135.272 152.716 135.272 152.032V131.44H130.34V152.32C130.34 155.452 131.816 157.18 134.696 157.18C135.776 157.18 136.604 157.036 137.288 156.82L137 152.932ZM147.055 152.932C146.659 153.076 146.479 153.112 146.191 153.112C145.687 153.112 145.327 152.716 145.327 152.032V131.44H140.395V152.32C140.395 155.452 141.871 157.18 144.751 157.18C145.831 157.18 146.659 157.036 147.343 156.82L147.055 152.932ZM170.32 131.44V141.772C169.348 140.224 167.728 139.18 165.136 139.18C160.24 139.18 157.18 142.996 157.18 148.396C157.18 153.94 160.42 157.18 164.884 157.18C167.512 157.18 169.312 156.028 170.356 154.444L170.464 157H175.252V131.44H170.32ZM166.108 153.04C163.732 153.04 162.184 151.168 162.184 148.252C162.184 145.264 163.804 143.32 166.144 143.32C168.772 143.32 170.32 145.516 170.32 147.64V148.756C170.32 150.736 168.844 153.04 166.108 153.04ZM190.684 139.36V149.224C190.684 151.42 189.28 152.896 187.444 152.896C185.464 152.896 184.42 151.6 184.42 149.548V139.36H179.452V150.7C179.452 154.336 181.504 157.18 185.536 157.18C187.984 157.18 189.712 156.064 190.72 154.408L190.864 157H195.616V139.36H190.684ZM219.893 139.36L219.749 141.628C218.849 140.188 217.193 139.18 214.601 139.18C210.245 139.18 206.645 142.492 206.645 148.216C206.645 153.4 209.705 157.144 214.421 157.144C217.049 157.144 218.741 156.064 219.713 154.444V157.18C219.713 159.232 218.345 160.888 215.609 160.888C213.449 160.888 212.189 160.276 211.901 158.8H207.257C207.653 162.76 210.821 164.632 215.609 164.632C221.369 164.632 224.645 161.284 224.645 157V139.36H219.893ZM215.573 153.004C213.269 153.004 211.649 151.096 211.649 148.216C211.649 145.264 213.269 143.32 215.573 143.32C218.237 143.32 219.713 145.624 219.713 147.64V148.684C219.713 150.808 218.165 153.004 215.573 153.004ZM233.634 131.296C232.05 131.296 231.006 132.34 231.006 133.852C231.006 135.328 232.05 136.372 233.634 136.372C235.254 136.372 236.298 135.328 236.298 133.852C236.298 132.34 235.254 131.296 233.634 131.296ZM240.906 131.296C239.358 131.296 238.278 132.34 238.278 133.852C238.278 135.328 239.358 136.372 240.906 136.372C242.526 136.372 243.57 135.328 243.57 133.852C243.57 132.34 242.526 131.296 240.906 131.296ZM237.126 139.18C231.726 139.18 228.09 142.96 228.09 148.288C228.09 153.58 231.726 157.18 237.126 157.18C242.598 157.18 246.198 153.4 246.198 148.108C246.198 142.816 242.598 139.18 237.126 139.18ZM237.126 143.248C239.646 143.248 241.194 145.228 241.194 148.216C241.194 151.132 239.646 153.112 237.126 153.112C234.678 153.112 233.058 151.132 233.058 148.216C233.058 145.228 234.678 143.248 237.126 143.248ZM259.059 139.18C256.755 139.18 255.351 140.44 254.523 142.24L254.415 139.36H249.663V157H254.595V147.892C254.883 145.372 256.683 143.968 258.915 143.968C259.599 143.968 259.851 144.04 260.139 144.148L260.175 139.324C259.959 139.216 259.455 139.18 259.059 139.18ZM279.627 152.932C279.231 153.076 279.051 153.112 278.727 153.112C278.223 153.112 277.899 152.752 277.899 152.032V146.344C277.899 141.88 275.163 139.18 270.015 139.18C265.443 139.18 262.347 141.376 262.059 145.372H266.523C266.703 143.86 267.891 142.924 269.763 142.924C271.995 142.924 273.111 144.148 273.111 145.984V146.776H270.843C266.019 146.776 261.591 148.036 261.591 152.356C261.591 155.272 263.679 157.18 267.567 157.18C271.311 157.18 272.787 155.416 273.363 154.336H273.399C274.011 156.28 275.487 157.18 277.395 157.18C278.403 157.18 279.231 157.036 279.915 156.82L279.627 152.932ZM268.935 153.58C267.243 153.58 266.379 152.932 266.379 151.78C266.379 150.232 267.927 149.476 270.555 149.476H273.111V150.592C273.111 151.996 271.527 153.58 268.935 153.58ZM115.364 198.996C115.364 191.652 105.32 194.496 105.32 191.256C105.32 190.248 106.148 189.6 108.02 189.6C109.748 189.6 110.72 190.32 110.828 191.76H115.112C115.076 188.268 112.556 186.18 108.056 186.18C103.412 186.18 100.532 188.16 100.532 191.4C100.532 198.528 110.576 195.828 110.576 199.14C110.612 200.148 109.712 200.76 107.624 200.76C105.464 200.76 104.492 199.968 104.384 198.528L100.172 198.492C100.208 202.164 102.728 204.18 107.696 204.18C112.412 204.18 115.4 202.272 115.364 198.996ZM130.996 204H136.54L129.448 193.524L135.892 186.324H130.024L123.796 193.632V178.44H118.864V204H123.796V199.788L126.28 197.052L130.996 204ZM144.169 180.672C144.169 178.908 142.765 177.576 140.965 177.576C139.201 177.576 137.797 178.908 137.797 180.672C137.797 182.472 139.201 183.732 140.965 183.732C142.765 183.732 144.169 182.472 144.169 180.672ZM138.481 204H143.449V186.36H138.481V204ZM154.385 199.932C153.989 200.076 153.809 200.112 153.521 200.112C153.017 200.112 152.657 199.716 152.657 199.032V178.44H147.725V199.32C147.725 202.452 149.201 204.18 152.081 204.18C153.161 204.18 153.989 204.036 154.673 203.82L154.385 199.932ZM164.439 199.932C164.043 200.076 163.863 200.112 163.575 200.112C163.071 200.112 162.711 199.716 162.711 199.032V178.44H157.779V199.32C157.779 202.452 159.255 204.18 162.135 204.18C163.215 204.18 164.043 204.036 164.727 203.82L164.439 199.932ZM178.346 186.18C175.646 186.18 173.882 187.296 172.838 188.952L172.694 186.36H167.942V204H172.874V194.136C172.874 191.94 174.278 190.464 176.438 190.464C178.526 190.464 179.57 191.832 179.57 194.064V204H184.502V192.948C184.502 188.988 182.342 186.18 178.346 186.18ZM205.675 199.932C205.279 200.076 205.099 200.112 204.775 200.112C204.271 200.112 203.947 199.752 203.947 199.032V193.344C203.947 188.88 201.211 186.18 196.063 186.18C191.491 186.18 188.395 188.376 188.107 192.372H192.571C192.751 190.86 193.939 189.924 195.811 189.924C198.043 189.924 199.159 191.148 199.159 192.984V193.776H196.891C192.067 193.776 187.639 195.036 187.639 199.356C187.639 202.272 189.727 204.18 193.615 204.18C197.359 204.18 198.835 202.416 199.411 201.336H199.447C200.059 203.28 201.535 204.18 203.443 204.18C204.451 204.18 205.279 204.036 205.963 203.82L205.675 199.932ZM194.983 200.58C193.291 200.58 192.427 199.932 192.427 198.78C192.427 197.232 193.975 196.476 196.603 196.476H199.159V197.592C199.159 198.996 197.575 200.58 194.983 200.58ZM220.857 178.44V188.772C219.885 187.224 218.265 186.18 215.673 186.18C210.777 186.18 207.717 189.996 207.717 195.396C207.717 200.94 210.957 204.18 215.421 204.18C218.049 204.18 219.849 203.028 220.893 201.444L221.001 204H225.789V178.44H220.857ZM216.645 200.04C214.269 200.04 212.721 198.168 212.721 195.252C212.721 192.264 214.341 190.32 216.681 190.32C219.309 190.32 220.857 192.516 220.857 194.64V195.756C220.857 197.736 219.381 200.04 216.645 200.04ZM248.131 186.18C245.467 186.18 243.631 187.332 242.623 188.916L242.515 186.324H237.727V211.272H242.659V201.48C243.631 203.1 245.359 204.18 247.951 204.18C252.739 204.18 255.799 200.364 255.799 194.892C255.799 189.312 252.595 186.18 248.131 186.18ZM246.835 200.04C244.207 200.04 242.659 197.844 242.659 195.72V194.604C242.659 192.624 244.135 190.32 246.871 190.32C249.283 190.32 250.795 192.192 250.795 195.108C250.795 198.096 249.175 200.04 246.835 200.04ZM266.946 184.38C268.926 184.38 270.654 183.012 270.654 180.852C270.654 178.656 268.926 177.288 266.946 177.288C264.93 177.288 263.202 178.656 263.202 180.852C263.202 183.012 264.93 184.38 266.946 184.38ZM266.946 179.664C267.702 179.664 268.206 180.168 268.206 180.852C268.206 181.536 267.702 182.076 266.946 182.076C266.154 182.076 265.686 181.536 265.686 180.852C265.686 180.168 266.154 179.664 266.946 179.664ZM276.234 199.932C275.838 200.076 275.658 200.112 275.334 200.112C274.83 200.112 274.506 199.752 274.506 199.032V193.344C274.506 188.88 271.77 186.18 266.622 186.18C262.05 186.18 258.954 188.376 258.666 192.372H263.13C263.31 190.86 264.498 189.924 266.37 189.924C268.602 189.924 269.718 191.148 269.718 192.984V193.776H267.45C262.626 193.776 258.198 195.036 258.198 199.356C258.198 202.272 260.286 204.18 264.174 204.18C267.918 204.18 269.394 202.416 269.97 201.336H270.006C270.618 203.28 272.094 204.18 274.002 204.18C275.01 204.18 275.838 204.036 276.522 203.82L276.234 199.932ZM265.542 200.58C263.85 200.58 262.986 199.932 262.986 198.78C262.986 197.232 264.534 196.476 267.162 196.476H269.718V197.592C269.718 198.996 268.134 200.58 265.542 200.58ZM140.055 233.18C137.751 233.18 136.347 234.44 135.519 236.24L135.411 233.36H130.659V251H135.591V241.892C135.879 239.372 137.679 237.968 139.911 237.968C140.595 237.968 140.847 238.04 141.135 238.148L141.171 233.324C140.955 233.216 140.451 233.18 140.055 233.18ZM149.671 227.672C149.671 225.908 148.267 224.576 146.467 224.576C144.703 224.576 143.299 225.908 143.299 227.672C143.299 229.472 144.703 230.732 146.467 230.732C148.267 230.732 149.671 229.472 149.671 227.672ZM143.983 251H148.951V233.36H143.983V251ZM165.467 251H171.011L163.919 240.524L170.363 233.324H164.495L158.267 240.632V225.44H153.335V251H158.267V246.788L160.751 244.052L165.467 251ZM184.184 246.68C183.5 246.932 182.816 247.076 182.06 247.076C179.792 247.076 178.928 245.96 178.928 244.232V237.284H184.184V233.36H178.928V228.356H174.284V233.36H171.404V237.284H173.996V244.448C173.996 248.444 176.588 251.18 181.268 251.18C182.564 251.18 183.68 250.964 184.328 250.712L184.184 246.68ZM192.948 227.672C192.948 225.908 191.544 224.576 189.744 224.576C187.98 224.576 186.576 225.908 186.576 227.672C186.576 229.472 187.98 230.732 189.744 230.732C191.544 230.732 192.948 229.472 192.948 227.672ZM187.26 251H192.228V233.36H187.26V251ZM208.924 233.36L208.78 235.628C207.88 234.188 206.224 233.18 203.632 233.18C199.276 233.18 195.676 236.492 195.676 242.216C195.676 247.4 198.736 251.144 203.452 251.144C206.08 251.144 207.772 250.064 208.744 248.444V251.18C208.744 253.232 207.376 254.888 204.64 254.888C202.48 254.888 201.22 254.276 200.932 252.8H196.288C196.684 256.76 199.852 258.632 204.64 258.632C210.4 258.632 213.676 255.284 213.676 251V233.36H208.924ZM204.604 247.004C202.3 247.004 200.68 245.096 200.68 242.216C200.68 239.264 202.3 237.32 204.604 237.32C207.268 237.32 208.744 239.624 208.744 241.64V242.684C208.744 244.808 207.196 247.004 204.604 247.004ZM229.289 246.68C228.605 246.932 227.921 247.076 227.165 247.076C224.897 247.076 224.033 245.96 224.033 244.232V237.284H229.289V233.36H224.033V228.356H219.389V233.36H216.509V237.284H219.101V244.448C219.101 248.444 221.693 251.18 226.373 251.18C227.669 251.18 228.785 250.964 229.433 250.712L229.289 246.68ZM238.846 225.152C234.058 225.188 231.07 228.14 231.07 232.748L235.858 232.712C235.858 230.588 237.046 229.508 238.954 229.508C240.61 229.508 241.618 230.3 241.654 231.884C241.654 234.8 236.002 236.78 236.002 241.064V242.432H240.61V241.388C240.61 238.292 246.478 236.672 246.478 231.92C246.478 227.852 243.562 225.116 238.846 225.152ZM238.234 245.384C236.398 245.42 235.138 246.644 235.138 248.372C235.138 250.136 236.362 251.396 238.198 251.396C240.07 251.396 241.33 250.136 241.33 248.408C241.33 246.68 240.07 245.42 238.234 245.384Z" fill="white"/>
</svg>
