<?xml version="1.0" encoding="UTF-8" standalone="no"?>
<svg
   xmlns:dc="http://purl.org/dc/elements/1.1/"
   xmlns:cc="http://creativecommons.org/ns#"
   xmlns:rdf="http://www.w3.org/1999/02/22-rdf-syntax-ns#"
   xmlns:svg="http://www.w3.org/2000/svg"
   xmlns="http://www.w3.org/2000/svg"
   xmlns:sodipodi="http://sodipodi.sourceforge.net/DTD/sodipodi-0.dtd"
   xmlns:inkscape="http://www.inkscape.org/namespaces/inkscape"
   width="281"
   height="281"
   viewBox="0 0 281 281"
   fill="none"
   version="1.1"
   id="svg8"
   sodipodi:docname="Group 7.svg"
   inkscape:version="1.0.2-2 (e86c870879, 2021-01-15)">
  <metadata
     id="metadata14">
    <rdf:RDF>
      <cc:Work
         rdf:about="">
        <dc:format>image/svg+xml</dc:format>
        <dc:type
           rdf:resource="http://purl.org/dc/dcmitype/StillImage" />
        <dc:title></dc:title>
      </cc:Work>
    </rdf:RDF>
  </metadata>
  <defs
     id="defs12" />
  <sodipodi:namedview
     pagecolor="#ffffff"
     bordercolor="#666666"
     borderopacity="1"
     objecttolerance="10"
     gridtolerance="10"
     guidetolerance="10"
     inkscape:pageopacity="0"
     inkscape:pageshadow="2"
     inkscape:window-width="1920"
     inkscape:window-height="1017"
     id="namedview10"
     showgrid="false"
     fit-margin-top="0"
     fit-margin-left="0"
     fit-margin-right="0"
     fit-margin-bottom="0"
     inkscape:zoom="1.2318841"
     inkscape:cx="11.664126"
     inkscape:cy="198.04818"
     inkscape:window-x="1912"
     inkscape:window-y="-8"
     inkscape:window-maximized="1"
     inkscape:current-layer="svg8" />
  <circle
     cx="140.5"
     cy="140.5"
     r="140.5"
     fill="#019294"
     id="circle2" />
  <path
     d="m 66.7681,113 h 3.864 V 97.068 h 6.076 v -3.276 h -16.016 v 3.276 h 6.076 z M 83.1418,94.856 c 0,-1.372 -1.092,-2.408 -2.492,-2.408 -1.372,0 -2.464,1.036 -2.464,2.408 0,1.4 1.092,2.38 2.464,2.38 1.4,0 2.492,-0.98 2.492,-2.38 z M 78.7178,113 h 3.864 V 99.28 h -3.864 z m 12.3694,-3.164 c -0.308,0.112 -0.448,0.14 -0.672,0.14 -0.392,0 -0.672,-0.308 -0.672,-0.84 V 93.12 h -3.836 v 16.24 c 0,2.436 1.148,3.78 3.388,3.78 0.84,0 1.484,-0.112 2.016,-0.28 z m 7.8203,0 c -0.308,0.112 -0.448,0.14 -0.672,0.14 -0.392,0 -0.672,-0.308 -0.672,-0.84 V 93.12 h -3.836 v 16.24 c 0,2.436 1.148,3.78 3.388,3.78 0.84,0 1.484,-0.112 2.016,-0.28 z m 13.7565,-0.728 c 0,-5.712 -7.812,-3.5 -7.812,-6.02 0,-0.784 0.644,-1.288 2.1,-1.288 1.344,0 2.1,0.56 2.184,1.68 h 3.332 c -0.028,-2.716 -1.988,-4.34 -5.488,-4.34 -3.612,0 -5.852,1.54 -5.852,4.06 0,5.544 7.812,3.444 7.812,6.02 0.028,0.784 -0.672,1.26 -2.296,1.26 -1.68,0 -2.436,-0.616 -2.52,-1.736 l -3.276,-0.028 c 0.028,2.856 1.988,4.424 5.852,4.424 3.668,0 5.992,-1.484 5.964,-4.032 z m 15.91,0.728 c -0.308,0.112 -0.448,0.14 -0.7,0.14 -0.392,0 -0.644,-0.28 -0.644,-0.84 v -4.424 c 0,-3.472 -2.128,-5.572 -6.132,-5.572 -3.556,0 -5.964,1.708 -6.188,4.816 h 3.472 c 0.14,-1.176 1.064,-1.904 2.52,-1.904 1.736,0 2.604,0.952 2.604,2.38 v 0.616 h -1.764 c -3.752,0 -7.196,0.98 -7.196,4.34 0,2.268 1.624,3.752 4.648,3.752 2.912,0 4.06,-1.372 4.508,-2.212 h 0.028 c 0.476,1.512 1.624,2.212 3.108,2.212 0.784,0 1.428,-0.112 1.96,-0.28 z m -8.316,0.504 c -1.316,0 -1.988,-0.504 -1.988,-1.4 0,-1.204 1.204,-1.792 3.248,-1.792 h 1.988 v 0.868 c 0,1.092 -1.232,2.324 -3.248,2.324 z m 27.236,-11.2 c -2.268,0 -3.752,1.204 -4.452,2.856 -0.644,-1.708 -2.1,-2.856 -4.312,-2.856 -1.904,0 -3.248,0.868 -4.032,2.128 L 134.586,99.28 H 130.89 V 113 h 3.836 v -7.672 c 0,-1.708 1.064,-2.856 2.604,-2.856 1.428,0 2.268,1.008 2.268,2.716 V 113 h 3.836 v -7.672 c 0,-1.708 1.064,-2.856 2.604,-2.856 1.4,0 2.268,0.98 2.268,2.716 V 113 h 3.864 v -8.652 c 0,-3.052 -1.624,-5.208 -4.676,-5.208 z m 24.554,0 c -2.268,0 -3.752,1.204 -4.452,2.856 -0.644,-1.708 -2.1,-2.856 -4.312,-2.856 -1.904,0 -3.248,0.868 -4.032,2.128 L 159.14,99.28 h -3.696 V 113 h 3.836 v -7.672 c 0,-1.708 1.064,-2.856 2.604,-2.856 1.428,0 2.268,1.008 2.268,2.716 V 113 h 3.836 v -7.672 c 0,-1.708 1.064,-2.856 2.604,-2.856 1.4,0 2.268,0.98 2.268,2.716 V 113 h 3.864 v -8.652 c 0,-3.052 -1.624,-5.208 -4.676,-5.208 z m 21.139,10.696 c -0.308,0.112 -0.448,0.14 -0.7,0.14 -0.392,0 -0.644,-0.28 -0.644,-0.84 v -4.424 c 0,-3.472 -2.128,-5.572 -6.132,-5.572 -3.556,0 -5.964,1.708 -6.188,4.816 h 3.472 c 0.14,-1.176 1.064,-1.904 2.52,-1.904 1.736,0 2.604,0.952 2.604,2.38 v 0.616 h -1.764 c -3.752,0 -7.196,0.98 -7.196,4.34 0,2.268 1.624,3.752 4.648,3.752 2.912,0 4.06,-1.372 4.508,-2.212 h 0.028 c 0.476,1.512 1.624,2.212 3.108,2.212 0.784,0 1.428,-0.112 1.96,-0.28 z m -8.316,0.504 c -1.316,0 -1.988,-0.504 -1.988,-1.4 0,-1.204 1.204,-1.792 3.248,-1.792 h 1.988 v 0.868 c 0,1.092 -1.232,2.324 -3.248,2.324 z m 18.724,-11.2 c -2.1,0 -3.472,0.868 -4.284,2.156 l -0.112,-2.016 h -3.696 V 113 h 3.836 v -7.672 c 0,-1.708 1.092,-2.856 2.772,-2.856 1.624,0 2.436,1.064 2.436,2.8 V 113 h 3.836 v -8.596 c 0,-3.08 -1.68,-5.264 -4.788,-5.264 z m 19.1,9.968 c 0,-5.712 -7.812,-3.5 -7.812,-6.02 0,-0.784 0.644,-1.288 2.1,-1.288 1.344,0 2.1,0.56 2.184,1.68 h 3.332 c -0.028,-2.716 -1.988,-4.34 -5.488,-4.34 -3.612,0 -5.852,1.54 -5.852,4.06 0,5.544 7.812,3.444 7.812,6.02 0.028,0.784 -0.672,1.26 -2.296,1.26 -1.68,0 -2.436,-0.616 -2.52,-1.736 l -3.276,-0.028 c 0.028,2.856 1.988,4.424 5.852,4.424 3.668,0 5.992,-1.484 5.964,-4.032 z m -108.394,22.868 c 0.588,0 1.204,0.112 1.54,0.252 l 0.14,-3.22 c -0.448,-0.112 -1.428,-0.252 -2.268,-0.252 -3.528,0 -5.768,2.24 -5.768,5.404 v 1.12 h -1.96 v 3.052 h 1.96 V 149 h 3.836 v -10.668 h 3.976 v -3.052 h -3.976 v -0.98 c 0,-1.4 0.812,-2.324 2.52,-2.324 z m 6.747,-2.968 c -1.232,0 -2.044,0.812 -2.044,1.988 0,1.148 0.812,1.96 2.044,1.96 1.26,0 2.072,-0.812 2.072,-1.96 0,-1.176 -0.812,-1.988 -2.072,-1.988 z m 5.656,0 c -1.204,0 -2.044,0.812 -2.044,1.988 0,1.148 0.84,1.96 2.044,1.96 1.26,0 2.072,-0.812 2.072,-1.96 0,-1.176 -0.812,-1.988 -2.072,-1.988 z m -2.94,6.132 c -4.2,0 -7.028,2.94 -7.028,7.084 0,4.116 2.828,6.916 7.028,6.916 4.256,0 7.056,-2.94 7.056,-7.056 0,-4.116 -2.8,-6.944 -7.056,-6.944 z m 0,3.164 c 1.96,0 3.164,1.54 3.164,3.864 0,2.268 -1.204,3.808 -3.164,3.808 -1.904,0 -3.164,-1.54 -3.164,-3.808 0,-2.324 1.26,-3.864 3.164,-3.864 z m 17.059,-3.164 c -1.792,0 -2.884,0.98 -3.528,2.38 l -0.084,-2.24 h -3.696 V 149 h 3.836 v -7.084 c 0.224,-1.96 1.624,-3.052 3.36,-3.052 0.532,0 0.728,0.056 0.952,0.14 l 0.028,-3.752 c -0.168,-0.084 -0.56,-0.112 -0.868,-0.112 z m 20.96,7.112 c 0,-4.2 -2.324,-7.112 -6.496,-7.112 -3.976,0 -6.86,2.884 -6.86,7.028 0,4.088 2.632,6.972 6.804,6.972 4.144,0 6.048,-2.296 6.496,-4.676 h -3.556 c -0.224,0.728 -0.896,1.68 -2.744,1.68 -1.792,0 -3.024,-1.064 -3.304,-3.164 h 9.66 z m -6.468,-4.256 c 1.568,0 2.632,0.812 2.884,2.772 h -6.02 c 0.364,-1.904 1.596,-2.772 3.136,-2.772 z m 17.245,-2.856 c -2.1,0 -3.472,0.868 -4.284,2.156 l -0.112,-2.016 h -3.696 V 149 h 3.836 v -7.672 c 0,-1.708 1.092,-2.856 2.772,-2.856 1.624,0 2.436,1.064 2.436,2.8 V 149 h 3.836 v -8.596 c 0,-3.08 -1.68,-5.264 -4.788,-5.264 z m -101.1934,36.14 -2.744,8.484 c -0.112,0.364 -0.224,0.896 -0.336,1.596 h -0.084 c -0.14,-0.7 -0.252,-1.232 -0.392,-1.596 l -2.744,-8.484 h -4.116 l 5.012,13.72 h 4.284 l 5.012,-13.72 z m 18.6661,10.556 c -0.308,0.112 -0.448,0.14 -0.7,0.14 -0.392,0 -0.644,-0.28 -0.644,-0.84 v -4.424 c 0,-3.472 -2.128,-5.572 -6.132,-5.572 -3.556,0 -5.964,1.708 -6.188,4.816 h 3.472 c 0.14,-1.176 1.064,-1.904 2.52,-1.904 1.736,0 2.604,0.952 2.604,2.38 v 0.616 h -1.764 c -3.752,0 -7.196,0.98 -7.196,4.34 0,2.268 1.624,3.752 4.648,3.752 2.912,0 4.06,-1.372 4.508,-2.212 h 0.028 c 0.476,1.512 1.624,2.212 3.108,2.212 0.784,0 1.428,-0.112 1.96,-0.28 z m -8.316,0.504 c -1.316,0 -1.988,-0.504 -1.988,-1.4 0,-1.204 1.204,-1.792 3.248,-1.792 h 1.988 v 0.868 c 0,1.092 -1.232,2.324 -3.248,2.324 z m 17.9399,-11.2 c -1.792,0 -2.884,0.98 -3.528,2.38 l -0.084,-2.24 h -3.696 V 185 h 3.836 v -7.084 c 0.224,-1.96 1.624,-3.052 3.36,-3.052 0.5324,0 0.7284,0.056 0.9524,0.14 l 0.028,-3.752 c -0.168,-0.084 -0.5604,-0.112 -0.8684,-0.112 z m 19.6594,0 c -2.268,0 -3.752,1.204 -4.452,2.856 -0.644,-1.708 -2.1,-2.856 -4.312,-2.856 -1.904,0 -3.248,0.868 -4.032,2.128 l -0.112,-1.988 h -3.696 V 185 h 3.836 v -7.672 c 0,-1.708 1.064,-2.856 2.604,-2.856 1.428,0 2.268,1.008 2.268,2.716 V 185 h 3.836 v -7.672 c 0,-1.708 1.064,-2.856 2.604,-2.856 1.4,0 2.268,0.98 2.268,2.716 V 185 h 3.864 v -8.652 c 0,-3.052 -1.624,-5.208 -4.676,-5.208 z m 21.139,10.696 c -0.308,0.112 -0.448,0.14 -0.7,0.14 -0.392,0 -0.644,-0.28 -0.644,-0.84 v -4.424 c 0,-3.472 -2.128,-5.572 -6.132,-5.572 -3.556,0 -5.964,1.708 -6.188,4.816 h 3.472 c 0.14,-1.176 1.064,-1.904 2.52,-1.904 1.736,0 2.604,0.952 2.604,2.38 v 0.616 h -1.764 c -3.752,0 -7.196,0.98 -7.196,4.34 0,2.268 1.624,3.752 4.648,3.752 2.912,0 4.06,-1.372 4.508,-2.212 h 0.028 c 0.476,1.512 1.624,2.212 3.108,2.212 0.784,0 1.428,-0.112 1.96,-0.28 z m -8.316,0.504 c -1.316,0 -1.988,-0.504 -1.988,-1.4 0,-1.204 1.204,-1.792 3.248,-1.792 h 1.988 v 0.868 c 0,1.092 -1.232,2.324 -3.248,2.324 z m 17.94,-11.2 c -1.792,0 -2.884,0.98 -3.528,2.38 l -0.084,-2.24 h -3.696 V 185 h 3.836 v -7.084 c 0.224,-1.96 1.624,-3.052 3.36,-3.052 0.532,0 0.728,0.056 0.952,0.14 l 0.028,-3.752 c -0.168,-0.084 -0.56,-0.112 -0.868,-0.112 z m 15.382,7.112 c 0,-4.2 -2.324,-7.112 -6.496,-7.112 -3.976,0 -6.86,2.884 -6.86,7.028 0,4.088 2.632,6.972 6.804,6.972 4.144,0 6.048,-2.296 6.496,-4.676 h -3.556 c -0.224,0.728 -0.896,1.68 -2.744,1.68 -1.792,0 -3.024,-1.064 -3.304,-3.164 h 9.66 z m -6.468,-4.256 c 1.568,0 2.632,0.812 2.884,2.772 h -6.02 c 0.364,-1.904 1.596,-2.772 3.136,-2.772 z m 26.063,7.112 c 0,-5.712 -7.812,-3.5 -7.812,-6.02 0,-0.784 0.644,-1.288 2.1,-1.288 1.344,0 2.1,0.56 2.184,1.68 h 3.332 c -0.028,-2.716 -1.988,-4.34 -5.488,-4.34 -3.612,0 -5.852,1.54 -5.852,4.06 0,5.544 7.812,3.444 7.812,6.02 0.028,0.784 -0.672,1.26 -2.296,1.26 -1.68,0 -2.436,-0.616 -2.52,-1.736 l -3.276,-0.028 c 0.028,2.856 1.988,4.424 5.852,4.424 3.668,0 5.992,-1.484 5.964,-4.032 z m 11.294,0.532 c -0.532,0.196 -1.064,0.308 -1.652,0.308 -1.764,0 -2.436,-0.868 -2.436,-2.212 v -5.404 h 4.088 v -3.052 h -4.088 v -3.892 h -3.612 v 3.892 h -2.24 v 3.052 h 2.016 v 5.572 c 0,3.108 2.016,5.236 5.656,5.236 1.008,0 1.876,-0.168 2.38,-0.364 z m 15.581,0.196 c -0.308,0.112 -0.448,0.14 -0.7,0.14 -0.392,0 -0.644,-0.28 -0.644,-0.84 v -4.424 c 0,-3.472 -2.128,-5.572 -6.132,-5.572 -3.556,0 -5.964,1.708 -6.188,4.816 h 3.472 c 0.14,-1.176 1.064,-1.904 2.52,-1.904 1.736,0 2.604,0.952 2.604,2.38 v 0.616 h -1.764 c -3.752,0 -7.196,0.98 -7.196,4.34 0,2.268 1.624,3.752 4.648,3.752 2.912,0 4.06,-1.372 4.508,-2.212 h 0.028 c 0.476,1.512 1.624,2.212 3.108,2.212 0.784,0 1.428,-0.112 1.96,-0.28 z m -8.316,0.504 c -1.316,0 -1.988,-0.504 -1.988,-1.4 0,-1.204 1.204,-1.792 3.248,-1.792 h 1.988 v 0.868 c 0,1.092 -1.232,2.324 -3.248,2.324 z m 20.124,-17.22 v 8.036 c -0.756,-1.204 -2.016,-2.016 -4.032,-2.016 -3.808,0 -6.188,2.968 -6.188,7.168 0,4.312 2.52,6.832 5.992,6.832 2.044,0 3.444,-0.896 4.256,-2.128 l 0.084,1.988 h 3.724 v -19.88 z m -3.276,16.8 c -1.848,0 -3.052,-1.456 -3.052,-3.724 0,-2.324 1.26,-3.836 3.08,-3.836 2.044,0 3.248,1.708 3.248,3.36 v 0.868 c 0,1.54 -1.148,3.332 -3.276,3.332 z m -155.776,147.87 -2.842,8.787 c -0.116,0.377 -0.232,0.928 -0.348,1.653 H 61.41 c -0.145,-0.725 -0.261,-1.276 -0.406,-1.653 L 58.162,329.79 H 53.899 L 59.09,344 h 4.437 l 5.191,-14.21 z m 19.3328,10.933 c -0.319,0.116 -0.464,0.145 -0.725,0.145 -0.406,0 -0.667,-0.29 -0.667,-0.87 v -4.582 c 0,-3.596 -2.204,-5.771 -6.351,-5.771 -3.683,0 -6.177,1.769 -6.409,4.988 h 3.596 c 0.145,-1.218 1.102,-1.972 2.61,-1.972 1.798,0 2.697,0.986 2.697,2.465 v 0.638 h -1.827 c -3.886,0 -7.453,1.015 -7.453,4.495 0,2.349 1.682,3.886 4.814,3.886 3.016,0 4.205,-1.421 4.669,-2.291 h 0.029 c 0.493,1.566 1.682,2.291 3.219,2.291 0.812,0 1.479,-0.116 2.03,-0.29 z m -8.613,0.522 c -1.363,0 -2.059,-0.522 -2.059,-1.45 0,-1.247 1.247,-1.856 3.364,-1.856 h 2.059 v 0.899 c 0,1.131 -1.276,2.407 -3.364,2.407 z m 18.5806,-11.6 c -1.856,0 -2.987,1.015 -3.654,2.465 l -0.087,-2.32 h -3.828 V 344 h 3.973 v -7.337 c 0.232,-2.03 1.682,-3.161 3.48,-3.161 0.551,0 0.754,0.058 0.986,0.145 l 0.029,-3.886 c -0.174,-0.087 -0.58,-0.116 -0.899,-0.116 z m 20.3616,0 c -2.349,0 -3.886,1.247 -4.611,2.958 -0.667,-1.769 -2.175,-2.958 -4.466,-2.958 -1.972,0 -3.364,0.899 -4.176,2.204 L 100.98,329.79 H 97.1518 V 344 h 3.9732 v -7.946 c 0,-1.769 1.102,-2.958 2.697,-2.958 1.479,0 2.349,1.044 2.349,2.813 V 344 h 3.973 v -7.946 c 0,-1.769 1.102,-2.958 2.697,-2.958 1.45,0 2.349,1.015 2.349,2.813 V 344 h 4.002 v -8.961 c 0,-3.161 -1.682,-5.394 -4.843,-5.394 z m 21.893,11.078 c -0.319,0.116 -0.464,0.145 -0.725,0.145 -0.406,0 -0.667,-0.29 -0.667,-0.87 v -4.582 c 0,-3.596 -2.204,-5.771 -6.351,-5.771 -3.683,0 -6.177,1.769 -6.409,4.988 h 3.596 c 0.145,-1.218 1.102,-1.972 2.61,-1.972 1.798,0 2.697,0.986 2.697,2.465 v 0.638 h -1.827 c -3.886,0 -7.453,1.015 -7.453,4.495 0,2.349 1.682,3.886 4.814,3.886 3.016,0 4.205,-1.421 4.669,-2.291 h 0.029 c 0.493,1.566 1.682,2.291 3.219,2.291 0.812,0 1.479,-0.116 2.03,-0.29 z m -8.613,0.522 c -1.363,0 -2.059,-0.522 -2.059,-1.45 0,-1.247 1.247,-1.856 3.364,-1.856 h 2.059 v 0.899 c 0,1.131 -1.276,2.407 -3.364,2.407 z m 18.581,-11.6 c -1.856,0 -2.987,1.015 -3.654,2.465 l -0.087,-2.32 h -3.828 V 344 h 3.973 v -7.337 c 0.232,-2.03 1.682,-3.161 3.48,-3.161 0.551,0 0.754,0.058 0.986,0.145 l 0.029,-3.886 c -0.174,-0.087 -0.58,-0.116 -0.899,-0.116 z m 15.932,7.366 c 0,-4.35 -2.407,-7.366 -6.728,-7.366 -4.118,0 -7.105,2.987 -7.105,7.279 0,4.234 2.726,7.221 7.047,7.221 4.292,0 6.264,-2.378 6.728,-4.843 h -3.683 c -0.232,0.754 -0.928,1.74 -2.842,1.74 -1.856,0 -3.132,-1.102 -3.422,-3.277 h 10.005 z m -6.699,-4.408 c 1.624,0 2.726,0.841 2.987,2.871 h -6.235 c 0.377,-1.972 1.653,-2.871 3.248,-2.871 z m 26.994,7.366 c 0,-5.916 -8.091,-3.625 -8.091,-6.235 0,-0.812 0.667,-1.334 2.175,-1.334 1.392,0 2.175,0.58 2.262,1.74 h 3.451 c -0.029,-2.813 -2.059,-4.495 -5.684,-4.495 -3.741,0 -6.061,1.595 -6.061,4.205 0,5.742 8.091,3.567 8.091,6.235 0.029,0.812 -0.696,1.305 -2.378,1.305 -1.74,0 -2.523,-0.638 -2.61,-1.798 l -3.393,-0.029 c 0.029,2.958 2.059,4.582 6.061,4.582 3.799,0 6.206,-1.537 6.177,-4.176 z m 11.697,0.551 c -0.551,0.203 -1.102,0.319 -1.711,0.319 -1.827,0 -2.523,-0.899 -2.523,-2.291 v -5.597 h 4.234 V 329.79 H 189.9 v -4.031 h -3.741 v 4.031 h -2.32 v 3.161 h 2.088 v 5.771 c 0,3.219 2.088,5.423 5.858,5.423 1.044,0 1.943,-0.174 2.465,-0.377 z m 16.138,0.203 c -0.319,0.116 -0.464,0.145 -0.725,0.145 -0.406,0 -0.667,-0.29 -0.667,-0.87 v -4.582 c 0,-3.596 -2.204,-5.771 -6.351,-5.771 -3.683,0 -6.177,1.769 -6.409,4.988 h 3.596 c 0.145,-1.218 1.102,-1.972 2.61,-1.972 1.798,0 2.697,0.986 2.697,2.465 v 0.638 h -1.827 c -3.886,0 -7.453,1.015 -7.453,4.495 0,2.349 1.682,3.886 4.814,3.886 3.016,0 4.205,-1.421 4.669,-2.291 h 0.029 c 0.493,1.566 1.682,2.291 3.219,2.291 0.812,0 1.479,-0.116 2.03,-0.29 z m -8.613,0.522 c -1.363,0 -2.059,-0.522 -2.059,-1.45 0,-1.247 1.247,-1.856 3.364,-1.856 h 2.059 v 0.899 c 0,1.131 -1.276,2.407 -3.364,2.407 z m 20.842,-17.835 v 8.323 c -0.783,-1.247 -2.088,-2.088 -4.176,-2.088 -3.944,0 -6.409,3.074 -6.409,7.424 0,4.466 2.61,7.076 6.206,7.076 2.117,0 3.567,-0.928 4.408,-2.204 l 0.087,2.059 h 3.857 v -20.59 z m -3.393,17.4 c -1.914,0 -3.161,-1.508 -3.161,-3.857 0,-2.407 1.305,-3.973 3.19,-3.973 2.117,0 3.364,1.769 3.364,3.48 v 0.899 c 0,1.595 -1.189,3.451 -3.393,3.451 z m 15.302,-17.4 h -4.234 l 0.377,13.688 h 3.48 z m -2.204,16.095 c -1.479,0 -2.494,0.986 -2.494,2.407 0,1.421 1.015,2.407 2.494,2.407 1.508,0 2.494,-0.986 2.494,-2.407 0,-1.421 -0.986,-2.407 -2.494,-2.407 z"
     fill="#ffffff"
     id="path6" />
</svg>
