<svg width="50" height="41" viewBox="0 0 50 41" fill="none" xmlns="http://www.w3.org/2000/svg">
<path d="M49.453 10.4253V32.4536C49.453 34.5029 48.639 36.4683 47.1898 37.9174C45.7407 39.3665 43.7753 40.1806 41.726 40.1806H7.72704C5.6777 40.1806 3.7123 39.3665 2.2632 37.9174C0.814096 36.4683 0 34.5029 0 32.4536V10.4253L23.9415 24.5133C24.1793 24.6535 24.4504 24.7275 24.7265 24.7275C25.0027 24.7275 25.2737 24.6535 25.5116 24.5133L49.453 10.4253ZM41.726 9.5669e-08C43.6273 -0.000298931 45.462 0.700399 46.879 1.96805C48.2961 3.23569 49.196 4.98129 49.4067 6.87088L24.7265 21.3884L0.0463626 6.87088C0.257027 4.98129 1.15697 3.23569 2.57402 1.96805C3.99106 0.700399 5.82574 -0.000298931 7.72704 9.5669e-08H41.726Z" fill="black"/>
</svg>
