<svg width="110" height="110" viewBox="0 0 110 110" fill="none" xmlns="http://www.w3.org/2000/svg">
<circle cx="55" cy="55" r="55" fill="#019294"/>
<path d="M58.863 25.9899C58.863 18.585 49.6518 15.1797 44.8308 20.8021L30.3122 37.7412C29.9378 38.1789 29.473 38.5303 28.9499 38.7712C28.4267 39.0121 27.8576 39.1369 27.2816 39.1368H26.9626C23.7899 39.1368 20.7472 40.3972 18.5038 42.6406C16.2603 44.884 15 47.9268 15 51.0995V59.0746C15 62.2472 16.2603 65.29 18.5038 67.5334C20.7472 69.7769 23.7899 71.0372 26.9626 71.0372H27.2816C27.8576 71.0372 28.4267 71.1619 28.9499 71.4028C29.473 71.6437 29.9378 71.9951 30.3122 72.4328L44.8308 89.3719C49.6518 94.9944 58.863 91.589 58.863 84.1841V25.9899ZM36.3653 42.937L50.8879 25.9859V84.1801L36.3653 67.2331C35.2415 65.9239 33.8479 64.8733 32.28 64.1534C30.712 63.4334 29.0069 63.0612 27.2816 63.0621H26.9626C25.9051 63.0621 24.8908 62.642 24.143 61.8942C23.3952 61.1464 22.9751 60.1321 22.9751 59.0746V51.0995C22.9751 50.0419 23.3952 49.0277 24.143 48.2799C24.8908 47.532 25.9051 47.1119 26.9626 47.1119H27.2816C29.0076 47.1119 30.713 46.7384 32.281 46.017C33.849 45.2957 35.2423 44.2436 36.3653 42.933V42.937ZM77.6364 44.2927C77.2661 43.9222 76.8266 43.6283 76.3427 43.4277C75.8589 43.2271 75.3403 43.1238 74.8166 43.1236C74.2928 43.1234 73.7741 43.2264 73.2902 43.4266C72.8062 43.6269 72.3665 43.9205 71.996 44.2907C71.6255 44.661 71.3315 45.1005 71.1309 45.5843C70.9303 46.0682 70.827 46.5868 70.8268 47.1105C70.8266 47.6343 70.9296 48.1529 71.1299 48.6369C71.3301 49.1209 71.6237 49.5606 71.994 49.9311L77.1499 55.087L71.994 60.2429C71.2676 60.995 70.8657 62.0022 70.8748 63.0478C70.8839 64.0933 71.3032 65.0934 72.0425 65.8327C72.7819 66.572 73.782 66.9914 74.8275 67.0005C75.873 67.0096 76.8803 66.6077 77.6324 65.8813L82.7883 60.7254L87.9441 65.8813C88.6962 66.6077 89.7035 67.0096 90.749 67.0005C91.7945 66.9914 92.7946 66.572 93.534 65.8327C94.2733 65.0934 94.6927 64.0933 94.7017 63.0478C94.7108 62.0022 94.3089 60.995 93.5825 60.2429L88.4266 55.087L93.5825 49.9311C94.3089 49.1791 94.7108 48.1718 94.7017 47.1263C94.6927 46.0808 94.2733 45.0806 93.534 44.3413C92.7946 43.602 91.7945 43.1826 90.749 43.1735C89.7035 43.1644 88.6962 43.5664 87.9441 44.2927L82.7883 49.4486L77.6324 44.2927H77.6364Z" fill="white"/>
</svg>
