<svg width="110" height="110" viewBox="0 0 110 110" fill="none" xmlns="http://www.w3.org/2000/svg">
<circle cx="55" cy="55" r="55" fill="#019294"/>
<path d="M59.0006 26.015C59.0006 18.5869 49.7604 15.1708 44.9244 20.8109L30.3602 37.8031C29.9846 38.2422 29.5184 38.5947 28.9936 38.8364C28.4688 39.078 27.8979 39.2032 27.3202 39.2031H27.0002C23.8175 39.2031 20.7652 40.4674 18.5148 42.7179C16.2643 44.9684 15 48.0206 15 51.2033V59.2034C15 62.386 16.2643 65.4383 18.5148 67.6888C20.7652 69.9392 23.8175 71.2035 27.0002 71.2035H27.3202C27.8979 71.2035 28.4688 71.3286 28.9936 71.5703C29.5184 71.812 29.9846 72.1645 30.3602 72.6035L44.9244 89.5958C49.7604 95.2358 59.0006 91.8198 59.0006 84.3917V26.015ZM36.4323 43.0152L51.0005 26.011V84.3877L36.4323 67.3875C35.305 66.0742 33.907 65.0203 32.3342 64.2981C30.7613 63.5759 29.0509 63.2025 27.3202 63.2034H27.0002C25.9393 63.2034 24.9218 62.782 24.1717 62.0318C23.4215 61.2817 23.0001 60.2643 23.0001 59.2034V51.2033C23.0001 50.1424 23.4215 49.125 24.1717 48.3748C24.9218 47.6247 25.9393 47.2032 27.0002 47.2032H27.3202C29.0515 47.2032 30.7623 46.8285 32.3352 46.1049C33.9081 45.3813 35.3057 44.3259 36.4323 43.0112V43.0152ZM81.5448 24.3029C81.1663 23.9298 80.7171 23.6359 80.2237 23.4384C79.7302 23.2409 79.2023 23.1437 78.6709 23.1525C78.1394 23.1613 77.615 23.2759 77.1284 23.4897C76.6417 23.7034 76.2026 24.0121 75.8366 24.3975C75.4706 24.7829 75.185 25.2374 74.9967 25.7344C74.8083 26.2315 74.7209 26.761 74.7395 27.2922C74.7581 27.8234 74.8825 28.3456 75.1052 28.8282C75.3279 29.3108 75.6446 29.7442 76.0368 30.103C90.6569 43.9912 90.6569 66.4155 76.0368 80.3036C75.2903 81.0393 74.8623 82.0385 74.845 83.0864C74.8276 84.1343 75.2223 85.1472 75.944 85.9072C76.6657 86.6672 77.6568 87.1135 78.7042 87.1503C79.7516 87.187 80.7716 86.8112 81.5448 86.1037C99.4851 69.0635 99.4851 41.3432 81.5448 24.3029V24.3029ZM69.7567 35.5031C68.9875 34.7721 67.9595 34.3767 66.8988 34.4037C65.8381 34.4307 64.8316 34.8779 64.1006 35.6471C63.3697 36.4162 62.9742 37.4442 63.0012 38.5049C63.0282 39.5657 63.4755 40.5722 64.2446 41.3032C72.3527 49.0032 72.3527 61.4034 64.2446 69.1035C63.4755 69.8344 63.0282 70.841 63.0012 71.9017C62.9742 72.9624 63.3697 73.9904 64.1006 74.7596C64.8316 75.5287 65.8381 75.976 66.8988 76.003C67.9595 76.03 68.9875 75.6345 69.7567 74.9036C81.1848 64.0474 81.1848 46.3592 69.7567 35.5031V35.5031Z" fill="white"/>
</svg>
