<svg width="80" height="80" viewBox="0 0 80 80" fill="none" xmlns="http://www.w3.org/2000/svg">
<path d="M10.0931 1.66144L40 31.5673L69.7839 1.78451C70.3058 1.22896 70.9346 0.784534 71.6325 0.477892C72.3304 0.171249 73.0831 0.00870313 73.8453 0C75.4774 0 77.0426 0.64831 78.1966 1.80231C79.3507 2.95631 79.999 4.52147 79.999 6.15347C80.0133 6.9079 79.8734 7.6573 79.5876 8.35569C79.3019 9.05407 78.8765 9.68671 78.3375 10.2148L48.2459 39.9976L78.3375 70.088C79.3517 71.0802 79.9464 72.4238 79.999 73.8417C79.999 75.4737 79.3507 77.0388 78.1966 78.1928C77.0426 79.3468 75.4774 79.9951 73.8453 79.9951C73.061 80.0277 72.2786 79.8968 71.5476 79.6108C70.8167 79.3247 70.1532 78.8898 69.5993 78.3337L40 48.4278L10.1546 78.2722C9.63464 78.8092 9.01348 79.2379 8.32696 79.5337C7.64044 79.8294 6.90215 79.9862 6.15469 79.9951C4.52263 79.9951 2.95742 79.3468 1.80338 78.1928C0.649335 77.0388 0.00100124 75.4737 0.00100124 73.8417C-0.0133461 73.0872 0.126632 72.3378 0.412345 71.6395C0.698058 70.9411 1.12348 70.3084 1.6625 69.7804L31.754 39.9976L1.6625 9.90709C0.648277 8.9149 0.0535514 7.57131 0.00100124 6.15347C0.00100124 4.52147 0.649335 2.95631 1.80338 1.80231C2.95742 0.64831 4.52263 0 6.15469 0C7.63158 0.0184604 9.04693 0.615347 10.0931 1.66144Z" fill="#019294"/>
</svg>
